<?xml version="1.0" encoding="UTF-8" standalone="no"?>
<!DOCTYPE svg PUBLIC "-//W3C//DTD SVG 1.1//EN"
 "http://www.w3.org/Graphics/SVG/1.1/DTD/svg11.dtd">
<!-- Generated by graphviz version 2.43.0 (0)
 -->
<!-- Title: header_graph Pages: 1 -->
<svg width="286pt" height="188pt"
 viewBox="0.00 0.00 286.39 188.00" xmlns="http://www.w3.org/2000/svg" xmlns:xlink="http://www.w3.org/1999/xlink">
<g id="graph0" class="graph" transform="scale(1 1) rotate(0) translate(4 184)">
<title>header_graph</title>
<polygon fill="white" stroke="transparent" points="-4,4 -4,-184 282.39,-184 282.39,4 -4,4"/>
<!-- example3.cpp -->
<g id="node1" class="node">
<title>example3.cpp</title>
<ellipse fill="none" stroke="black" cx="157.95" cy="-162" rx="75.29" ry="18"/>
<text text-anchor="middle" x="157.95" y="-158.3" font-family="Times,serif" font-size="14.00">example3.cpp</text>
</g>
<!-- private.h -->
<g id="node2" class="node">
<title>private.h</title>
<ellipse fill="none" stroke="black" cx="53.95" cy="-90" rx="52.79" ry="18"/>
<text text-anchor="middle" x="53.95" y="-86.3" font-family="Times,serif" font-size="14.00">private.h</text>
</g>
<!-- example3.cpp&#45;&gt;private.h -->
<g id="edge1" class="edge">
<title>example3.cpp&#45;&gt;private.h</title>
<path fill="none" stroke="black" d="M133.82,-144.76C119.34,-135.02 100.77,-122.52 85.18,-112.02"/>
<polygon fill="black" stroke="black" points="87.12,-109.11 76.86,-106.43 83.21,-114.91 87.12,-109.11"/>
</g>
<!-- foo.h -->
<g id="node3" class="node">
<title>foo.h</title>
<ellipse fill="none" stroke="black" cx="157.95" cy="-90" rx="33.6" ry="18"/>
<text text-anchor="middle" x="157.95" y="-86.3" font-family="Times,serif" font-size="14.00">foo.h</text>
</g>
<!-- example3.cpp&#45;&gt;foo.h -->
<g id="edge2" class="edge">
<title>example3.cpp&#45;&gt;foo.h</title>
<path fill="none" stroke="black" d="M157.95,-143.7C157.95,-135.98 157.95,-126.71 157.95,-118.11"/>
<polygon fill="black" stroke="black" points="161.45,-118.1 157.95,-108.1 154.45,-118.1 161.45,-118.1"/>
</g>
<!-- bar.h -->
<g id="node4" class="node">
<title>bar.h</title>
<ellipse fill="none" stroke="black" cx="243.95" cy="-90" rx="34.39" ry="18"/>
<text text-anchor="middle" x="243.95" y="-86.3" font-family="Times,serif" font-size="14.00">bar.h</text>
</g>
<!-- example3.cpp&#45;&gt;bar.h -->
<g id="edge3" class="edge">
<title>example3.cpp&#45;&gt;bar.h</title>
<path fill="none" stroke="black" d="M178.33,-144.41C190.22,-134.73 205.35,-122.41 218.08,-112.05"/>
<polygon fill="black" stroke="black" points="220.5,-114.6 226.04,-105.57 216.08,-109.17 220.5,-114.6"/>
</g>
<!-- circular.h -->
<g id="node5" class="node">
<title>circular.h</title>
<ellipse fill="none" stroke="black" cx="53.95" cy="-18" rx="53.89" ry="18"/>
<text text-anchor="middle" x="53.95" y="-14.3" font-family="Times,serif" font-size="14.00">circular.h</text>
</g>
<!-- private.h&#45;&gt;circular.h -->
<g id="edge4" class="edge">
<title>private.h&#45;&gt;circular.h</title>
<path fill="none" stroke="black" d="M48.07,-72.05C47.25,-64.35 47.01,-55.03 47.34,-46.36"/>
<polygon fill="black" stroke="black" points="50.84,-46.49 48.03,-36.28 43.86,-46.01 50.84,-46.49"/>
</g>
<!-- circular.h&#45;&gt;private.h -->
<g id="edge5" class="edge">
<title>circular.h&#45;&gt;private.h</title>
<path fill="none" stroke="black" d="M59.86,-36.28C60.66,-44.03 60.89,-53.36 60.54,-62.01"/>
<polygon fill="black" stroke="black" points="57.04,-61.83 59.82,-72.05 64.02,-62.33 57.04,-61.83"/>
</g>
</g>
</svg>
