<?xml version="1.0" encoding="UTF-8" standalone="no"?>
<!DOCTYPE svg PUBLIC "-//W3C//DTD SVG 1.1//EN"
 "http://www.w3.org/Graphics/SVG/1.1/DTD/svg11.dtd">
<!-- Generated by graphviz version 2.43.0 (0)
 -->
<!-- Title: include_dependency_graph Pages: 1 -->
<svg width="751pt" height="188pt"
 viewBox="0.00 0.00 751.29 188.00" xmlns="http://www.w3.org/2000/svg" xmlns:xlink="http://www.w3.org/1999/xlink">
<g id="graph0" class="graph" transform="scale(1 1) rotate(0) translate(4 184)">
<title>include_dependency_graph</title>
<polygon fill="white" stroke="transparent" points="-4,4 -4,-184 747.29,-184 747.29,4 -4,4"/>
<!-- src/example3.cpp -->
<g id="node1" class="node">
<title>src/example3.cpp</title>
<polygon fill="lightgray" stroke="black" points="474.24,-180 361.24,-180 361.24,-144 474.24,-144 474.24,-180"/>
<text text-anchor="middle" x="417.74" y="-158.3" font-family="Times,serif" font-size="14.00">src/example3.cpp</text>
</g>
<!-- /usr/include/stdc&#45;predef.h -->
<g id="node2" class="node">
<title>/usr/include/stdc&#45;predef.h</title>
<ellipse fill="none" stroke="black" stroke-dasharray="5,2" cx="100.74" cy="-90" rx="100.98" ry="18"/>
<text text-anchor="middle" x="100.74" y="-86.3" font-family="Times,serif" font-size="14.00">/usr/include/stdc&#45;predef.h</text>
</g>
<!-- src/example3.cpp&#45;&gt;/usr/include/stdc&#45;predef.h -->
<g id="edge4" class="edge">
<title>src/example3.cpp&#45;&gt;/usr/include/stdc&#45;predef.h</title>
<path fill="none" stroke="black" d="M361.07,-148.49C308.06,-136.78 228.71,-119.26 171.56,-106.64"/>
<polygon fill="black" stroke="black" points="172.03,-103.16 161.51,-104.42 170.52,-109.99 172.03,-103.16"/>
</g>
<!-- include/example3/foo.h -->
<g id="node3" class="node">
<title>include/example3/foo.h</title>
<ellipse fill="none" stroke="black" cx="314.74" cy="-90" rx="94.78" ry="18"/>
<text text-anchor="middle" x="314.74" y="-86.3" font-family="Times,serif" font-size="14.00">include/example3/foo.h</text>
</g>
<!-- src/example3.cpp&#45;&gt;include/example3/foo.h -->
<g id="edge3" class="edge">
<title>src/example3.cpp&#45;&gt;include/example3/foo.h</title>
<path fill="none" stroke="black" d="M392.54,-143.88C378.9,-134.61 361.9,-123.05 347.27,-113.1"/>
<polygon fill="black" stroke="black" points="349.21,-110.19 338.97,-107.47 345.27,-115.98 349.21,-110.19"/>
</g>
<!-- include/example3/bar.h -->
<g id="node4" class="node">
<title>include/example3/bar.h</title>
<ellipse fill="none" stroke="black" cx="520.74" cy="-90" rx="93.68" ry="18"/>
<text text-anchor="middle" x="520.74" y="-86.3" font-family="Times,serif" font-size="14.00">include/example3/bar.h</text>
</g>
<!-- src/example3.cpp&#45;&gt;include/example3/bar.h -->
<g id="edge2" class="edge">
<title>src/example3.cpp&#45;&gt;include/example3/bar.h</title>
<path fill="none" stroke="black" d="M442.94,-143.88C456.58,-134.61 473.59,-123.05 488.22,-113.1"/>
<polygon fill="black" stroke="black" points="490.21,-115.98 496.51,-107.47 486.28,-110.19 490.21,-115.98"/>
</g>
<!-- src/private.h -->
<g id="node5" class="node">
<title>src/private.h</title>
<ellipse fill="none" stroke="black" cx="686.74" cy="-90" rx="54.69" ry="18"/>
<text text-anchor="middle" x="686.74" y="-86.3" font-family="Times,serif" font-size="14.00">src/private.h</text>
</g>
<!-- src/example3.cpp&#45;&gt;src/private.h -->
<g id="edge1" class="edge">
<title>src/example3.cpp&#45;&gt;src/private.h</title>
<path fill="none" stroke="black" d="M474.62,-146.56C516.01,-136 573.39,-121.27 623.74,-108 627.81,-106.93 632.02,-105.81 636.25,-104.68"/>
<polygon fill="black" stroke="black" points="637.34,-108.01 646.09,-102.04 635.53,-101.25 637.34,-108.01"/>
</g>
<!-- src/circular.h -->
<g id="node6" class="node">
<title>src/circular.h</title>
<ellipse fill="none" stroke="black" cx="686.74" cy="-18" rx="56.59" ry="18"/>
<text text-anchor="middle" x="686.74" y="-14.3" font-family="Times,serif" font-size="14.00">src/circular.h</text>
</g>
<!-- src/private.h&#45;&gt;src/circular.h -->
<g id="edge5" class="edge">
<title>src/private.h&#45;&gt;src/circular.h</title>
<path fill="none" stroke="black" d="M680.86,-72.05C680.04,-64.35 679.8,-55.03 680.14,-46.36"/>
<polygon fill="black" stroke="black" points="683.64,-46.49 680.83,-36.28 676.65,-46.01 683.64,-46.49"/>
</g>
<!-- src/circular.h&#45;&gt;src/private.h -->
<g id="edge6" class="edge">
<title>src/circular.h&#45;&gt;src/private.h</title>
<path fill="none" stroke="black" d="M692.65,-36.28C693.46,-44.03 693.68,-53.36 693.33,-62.01"/>
<polygon fill="black" stroke="black" points="689.84,-61.83 692.62,-72.05 696.82,-62.33 689.84,-61.83"/>
</g>
</g>
</svg>
