<?xml version="1.0" encoding="UTF-8" standalone="no"?>
<!DOCTYPE svg PUBLIC "-//W3C//DTD SVG 1.1//EN"
 "http://www.w3.org/Graphics/SVG/1.1/DTD/svg11.dtd">
<!-- Generated by graphviz version 2.43.0 (0)
 -->
<!-- Title: header_graph Pages: 1 -->
<svg width="287pt" height="188pt"
 viewBox="0.00 0.00 286.74 188.00" xmlns="http://www.w3.org/2000/svg" xmlns:xlink="http://www.w3.org/1999/xlink">
<g id="graph0" class="graph" transform="scale(1 1) rotate(0) translate(4 184)">
<title>header_graph</title>
<polygon fill="white" stroke="transparent" points="-4,4 -4,-184 282.74,-184 282.74,4 -4,4"/>
<!-- example2.cpp -->
<g id="node1" class="node">
<title>example2.cpp</title>
<ellipse fill="none" stroke="black" cx="158.95" cy="-162" rx="75.29" ry="18"/>
<text text-anchor="middle" x="158.95" y="-158.3" font-family="Times,serif" font-size="14.00">example2.cpp</text>
</g>
<!-- private.h -->
<g id="node2" class="node">
<title>private.h</title>
<ellipse fill="none" stroke="black" cx="53.95" cy="-90" rx="52.79" ry="18"/>
<text text-anchor="middle" x="53.95" y="-86.3" font-family="Times,serif" font-size="14.00">private.h</text>
</g>
<!-- example2.cpp&#45;&gt;private.h -->
<g id="edge1" class="edge">
<title>example2.cpp&#45;&gt;private.h</title>
<path fill="none" stroke="black" d="M134.86,-144.94C120.14,-135.13 101.17,-122.48 85.3,-111.9"/>
<polygon fill="black" stroke="black" points="87.1,-108.9 76.84,-106.26 83.22,-114.72 87.1,-108.9"/>
</g>
<!-- bar.h -->
<g id="node3" class="node">
<title>bar.h</title>
<ellipse fill="none" stroke="black" cx="158.95" cy="-90" rx="34.39" ry="18"/>
<text text-anchor="middle" x="158.95" y="-86.3" font-family="Times,serif" font-size="14.00">bar.h</text>
</g>
<!-- example2.cpp&#45;&gt;bar.h -->
<g id="edge2" class="edge">
<title>example2.cpp&#45;&gt;bar.h</title>
<path fill="none" stroke="black" d="M158.95,-143.7C158.95,-135.98 158.95,-126.71 158.95,-118.11"/>
<polygon fill="black" stroke="black" points="162.45,-118.1 158.95,-108.1 155.45,-118.1 162.45,-118.1"/>
</g>
<!-- foo.h -->
<g id="node4" class="node">
<title>foo.h</title>
<ellipse fill="none" stroke="black" cx="244.95" cy="-90" rx="33.6" ry="18"/>
<text text-anchor="middle" x="244.95" y="-86.3" font-family="Times,serif" font-size="14.00">foo.h</text>
</g>
<!-- example2.cpp&#45;&gt;foo.h -->
<g id="edge3" class="edge">
<title>example2.cpp&#45;&gt;foo.h</title>
<path fill="none" stroke="black" d="M179.33,-144.41C191.22,-134.73 206.35,-122.41 219.08,-112.05"/>
<polygon fill="black" stroke="black" points="221.5,-114.6 227.04,-105.57 217.08,-109.17 221.5,-114.6"/>
</g>
<!-- circular.h -->
<g id="node5" class="node">
<title>circular.h</title>
<ellipse fill="none" stroke="black" cx="53.95" cy="-18" rx="53.89" ry="18"/>
<text text-anchor="middle" x="53.95" y="-14.3" font-family="Times,serif" font-size="14.00">circular.h</text>
</g>
<!-- private.h&#45;&gt;circular.h -->
<g id="edge4" class="edge">
<title>private.h&#45;&gt;circular.h</title>
<path fill="none" stroke="black" d="M53.95,-71.7C53.95,-63.98 53.95,-54.71 53.95,-46.11"/>
<polygon fill="black" stroke="black" points="57.45,-46.1 53.95,-36.1 50.45,-46.1 57.45,-46.1"/>
</g>
</g>
</svg>
