<?xml version="1.0" encoding="UTF-8" standalone="no"?>
<!DOCTYPE svg PUBLIC "-//W3C//DTD SVG 1.1//EN"
 "http://www.w3.org/Graphics/SVG/1.1/DTD/svg11.dtd">
<!-- Generated by graphviz version 2.43.0 (0)
 -->
<!-- Title: include_dependency_graph Pages: 1 -->
<svg width="246pt" height="188pt"
 viewBox="0.00 0.00 246.30 188.00" xmlns="http://www.w3.org/2000/svg" xmlns:xlink="http://www.w3.org/1999/xlink">
<g id="graph0" class="graph" transform="scale(1 1) rotate(0) translate(4 184)">
<title>include_dependency_graph</title>
<polygon fill="white" stroke="transparent" points="-4,4 -4,-184 242.3,-184 242.3,4 -4,4"/>
<!-- a.cpp -->
<g id="node1" class="node">
<title>a.cpp</title>
<polygon fill="lightgray" stroke="black" points="120.8,-180 65.8,-180 65.8,-144 120.8,-144 120.8,-180"/>
<text text-anchor="middle" x="93.3" y="-158.3" font-family="Times,serif" font-size="14.00">a.cpp</text>
</g>
<!-- a.h -->
<g id="node3" class="node">
<title>a.h</title>
<ellipse fill="none" stroke="black" cx="49.3" cy="-90" rx="27" ry="18"/>
<text text-anchor="middle" x="49.3" y="-86.3" font-family="Times,serif" font-size="14.00">a.h</text>
</g>
<!-- a.cpp&#45;&gt;a.h -->
<g id="edge2" class="edge">
<title>a.cpp&#45;&gt;a.h</title>
<path fill="none" stroke="black" d="M82.42,-143.7C77.1,-135.23 70.6,-124.89 64.77,-115.61"/>
<polygon fill="black" stroke="black" points="67.73,-113.75 59.44,-107.14 61.8,-117.47 67.73,-113.75"/>
</g>
<!-- foo.h -->
<g id="node4" class="node">
<title>foo.h</title>
<ellipse fill="none" stroke="black" cx="132.3" cy="-90" rx="33.6" ry="18"/>
<text text-anchor="middle" x="132.3" y="-86.3" font-family="Times,serif" font-size="14.00">foo.h</text>
</g>
<!-- a.cpp&#45;&gt;foo.h -->
<g id="edge1" class="edge">
<title>a.cpp&#45;&gt;foo.h</title>
<path fill="none" stroke="black" d="M102.94,-143.7C107.49,-135.52 113.02,-125.6 118.04,-116.58"/>
<polygon fill="black" stroke="black" points="121.23,-118.06 123.04,-107.62 115.11,-114.65 121.23,-118.06"/>
</g>
<!-- c.cpp -->
<g id="node2" class="node">
<title>c.cpp</title>
<polygon fill="lightgray" stroke="black" points="238.3,-180 184.3,-180 184.3,-144 238.3,-144 238.3,-180"/>
<text text-anchor="middle" x="211.3" y="-158.3" font-family="Times,serif" font-size="14.00">c.cpp</text>
</g>
<!-- c.h -->
<g id="node5" class="node">
<title>c.h</title>
<ellipse fill="none" stroke="black" cx="211.3" cy="-90" rx="27" ry="18"/>
<text text-anchor="middle" x="211.3" y="-86.3" font-family="Times,serif" font-size="14.00">c.h</text>
</g>
<!-- c.cpp&#45;&gt;c.h -->
<g id="edge3" class="edge">
<title>c.cpp&#45;&gt;c.h</title>
<path fill="none" stroke="black" d="M211.3,-143.7C211.3,-135.98 211.3,-126.71 211.3,-118.11"/>
<polygon fill="black" stroke="black" points="214.8,-118.1 211.3,-108.1 207.8,-118.1 214.8,-118.1"/>
</g>
<!-- vector -->
<g id="node6" class="node">
<title>vector</title>
<ellipse fill="none" stroke="black" stroke-dasharray="5,2" cx="40.3" cy="-18" rx="40.09" ry="18"/>
<text text-anchor="middle" x="40.3" y="-14.3" font-family="Times,serif" font-size="14.00">vector</text>
</g>
<!-- a.h&#45;&gt;vector -->
<g id="edge4" class="edge">
<title>a.h&#45;&gt;vector</title>
<path fill="none" stroke="black" d="M47.12,-72.05C46.13,-64.35 44.93,-55.03 43.81,-46.36"/>
<polygon fill="black" stroke="black" points="47.26,-45.75 42.52,-36.28 40.32,-46.64 47.26,-45.75"/>
</g>
<!-- string -->
<g id="node7" class="node">
<title>string</title>
<ellipse fill="none" stroke="black" stroke-dasharray="5,2" cx="137.3" cy="-18" rx="38.19" ry="18"/>
<text text-anchor="middle" x="137.3" y="-14.3" font-family="Times,serif" font-size="14.00">string</text>
</g>
<!-- foo.h&#45;&gt;string -->
<g id="edge5" class="edge">
<title>foo.h&#45;&gt;string</title>
<path fill="none" stroke="black" d="M133.53,-71.7C134.08,-63.98 134.75,-54.71 135.36,-46.11"/>
<polygon fill="black" stroke="black" points="138.85,-46.33 136.07,-36.1 131.87,-45.83 138.85,-46.33"/>
</g>
</g>
</svg>
