<?xml version="1.0" encoding="UTF-8" standalone="no"?>
<!DOCTYPE svg PUBLIC "-//W3C//DTD SVG 1.1//EN"
 "http://www.w3.org/Graphics/SVG/1.1/DTD/svg11.dtd">
<!-- Generated by graphviz version 2.43.0 (0)
 -->
<!-- Title: include_dependency_graph Pages: 1 -->
<svg width="199pt" height="260pt"
 viewBox="0.00 0.00 198.64 260.00" xmlns="http://www.w3.org/2000/svg" xmlns:xlink="http://www.w3.org/1999/xlink">
<g id="graph0" class="graph" transform="scale(1 1) rotate(0) translate(4 256)">
<title>include_dependency_graph</title>
<polygon fill="white" stroke="transparent" points="-4,4 -4,-256 194.64,-256 194.64,4 -4,4"/>
<!-- a.cpp -->
<g id="node1" class="node">
<title>a.cpp</title>
<polygon fill="lightgray" stroke="black" points="109.8,-252 54.8,-252 54.8,-216 109.8,-216 109.8,-252"/>
<text text-anchor="middle" x="82.3" y="-230.3" font-family="Times,serif" font-size="14.00">a.cpp</text>
</g>
<!-- a.h -->
<g id="node2" class="node">
<title>a.h</title>
<ellipse fill="none" stroke="black" cx="43.3" cy="-162" rx="27" ry="18"/>
<text text-anchor="middle" x="43.3" y="-158.3" font-family="Times,serif" font-size="14.00">a.h</text>
</g>
<!-- a.cpp&#45;&gt;a.h -->
<g id="edge2" class="edge">
<title>a.cpp&#45;&gt;a.h</title>
<path fill="none" stroke="black" d="M72.66,-215.7C67.99,-207.32 62.29,-197.1 57.17,-187.9"/>
<polygon fill="black" stroke="black" points="60.22,-186.18 52.29,-179.14 54.1,-189.58 60.22,-186.18"/>
</g>
<!-- foo.h -->
<g id="node3" class="node">
<title>foo.h</title>
<ellipse fill="none" stroke="black" cx="125.3" cy="-162" rx="33.6" ry="18"/>
<text text-anchor="middle" x="125.3" y="-158.3" font-family="Times,serif" font-size="14.00">foo.h</text>
</g>
<!-- a.cpp&#45;&gt;foo.h -->
<g id="edge1" class="edge">
<title>a.cpp&#45;&gt;foo.h</title>
<path fill="none" stroke="black" d="M92.93,-215.7C98,-207.44 104.17,-197.39 109.76,-188.3"/>
<polygon fill="black" stroke="black" points="112.83,-189.98 115.09,-179.62 106.87,-186.31 112.83,-189.98"/>
</g>
<!-- vector -->
<g id="node5" class="node">
<title>vector</title>
<ellipse fill="none" stroke="black" stroke-dasharray="5,2" cx="40.3" cy="-90" rx="40.09" ry="18"/>
<text text-anchor="middle" x="40.3" y="-86.3" font-family="Times,serif" font-size="14.00">vector</text>
</g>
<!-- a.h&#45;&gt;vector -->
<g id="edge3" class="edge">
<title>a.h&#45;&gt;vector</title>
<path fill="none" stroke="black" d="M42.55,-143.7C42.22,-135.98 41.83,-126.71 41.46,-118.11"/>
<polygon fill="black" stroke="black" points="44.95,-117.95 41.03,-108.1 37.96,-118.25 44.95,-117.95"/>
</g>
<!-- b.h -->
<g id="node4" class="node">
<title>b.h</title>
<ellipse fill="none" stroke="black" cx="125.3" cy="-90" rx="27" ry="18"/>
<text text-anchor="middle" x="125.3" y="-86.3" font-family="Times,serif" font-size="14.00">b.h</text>
</g>
<!-- foo.h&#45;&gt;b.h -->
<g id="edge5" class="edge">
<title>foo.h&#45;&gt;b.h</title>
<path fill="none" stroke="black" d="M119.42,-144.05C118.59,-136.23 118.35,-126.75 118.71,-117.98"/>
<polygon fill="black" stroke="black" points="122.21,-118.01 119.43,-107.79 115.23,-117.51 122.21,-118.01"/>
</g>
<!-- string -->
<g id="node6" class="node">
<title>string</title>
<ellipse fill="none" stroke="black" stroke-dasharray="5,2" cx="152.3" cy="-18" rx="38.19" ry="18"/>
<text text-anchor="middle" x="152.3" y="-14.3" font-family="Times,serif" font-size="14.00">string</text>
</g>
<!-- foo.h&#45;&gt;string -->
<g id="edge4" class="edge">
<title>foo.h&#45;&gt;string</title>
<path fill="none" stroke="black" d="M139.42,-145.62C147.54,-135.69 156.98,-122.03 161.3,-108 167.52,-87.77 164.57,-63.87 160.44,-45.92"/>
<polygon fill="black" stroke="black" points="163.81,-44.95 157.94,-36.12 157.02,-46.68 163.81,-44.95"/>
</g>
<!-- b.h&#45;&gt;foo.h -->
<g id="edge6" class="edge">
<title>b.h&#45;&gt;foo.h</title>
<path fill="none" stroke="black" d="M131.16,-107.79C132,-115.59 132.24,-125.07 131.89,-133.85"/>
<polygon fill="black" stroke="black" points="128.39,-133.83 131.17,-144.05 135.37,-134.33 128.39,-133.83"/>
</g>
<!-- b.h&#45;&gt;string -->
<g id="edge7" class="edge">
<title>b.h&#45;&gt;string</title>
<path fill="none" stroke="black" d="M131.7,-72.41C134.81,-64.34 138.63,-54.43 142.13,-45.35"/>
<polygon fill="black" stroke="black" points="145.42,-46.55 145.76,-35.96 138.89,-44.03 145.42,-46.55"/>
</g>
</g>
</svg>
