<?xml version="1.0" encoding="UTF-8" standalone="no"?>
<!DOCTYPE svg PUBLIC "-//W3C//DTD SVG 1.1//EN"
 "http://www.w3.org/Graphics/SVG/1.1/DTD/svg11.dtd">
<!-- Generated by graphviz version 2.43.0 (0)
 -->
<!-- Title: include_dependency_graph Pages: 1 -->
<svg width="323pt" height="260pt"
 viewBox="0.00 0.00 323.30 260.00" xmlns="http://www.w3.org/2000/svg" xmlns:xlink="http://www.w3.org/1999/xlink">
<g id="graph0" class="graph" transform="scale(1 1) rotate(0) translate(4 256)">
<title>include_dependency_graph</title>
<polygon fill="white" stroke="transparent" points="-4,4 -4,-256 319.3,-256 319.3,4 -4,4"/>
<!-- a.cpp -->
<g id="node1" class="node">
<title>a.cpp</title>
<polygon fill="lightgray" stroke="black" points="121.8,-252 66.8,-252 66.8,-216 121.8,-216 121.8,-252"/>
<text text-anchor="middle" x="94.3" y="-230.3" font-family="Times,serif" font-size="14.00">a.cpp</text>
</g>
<!-- a.h -->
<g id="node4" class="node">
<title>a.h</title>
<ellipse fill="none" stroke="black" cx="49.3" cy="-162" rx="27" ry="18"/>
<text text-anchor="middle" x="49.3" y="-158.3" font-family="Times,serif" font-size="14.00">a.h</text>
</g>
<!-- a.cpp&#45;&gt;a.h -->
<g id="edge2" class="edge">
<title>a.cpp&#45;&gt;a.h</title>
<path fill="none" stroke="black" d="M83.17,-215.7C77.73,-207.23 71.08,-196.89 65.12,-187.61"/>
<polygon fill="black" stroke="black" points="68.03,-185.66 59.68,-179.14 62.14,-189.45 68.03,-185.66"/>
</g>
<!-- foo.h -->
<g id="node5" class="node">
<title>foo.h</title>
<ellipse fill="none" stroke="black" cx="133.3" cy="-162" rx="33.6" ry="18"/>
<text text-anchor="middle" x="133.3" y="-158.3" font-family="Times,serif" font-size="14.00">foo.h</text>
</g>
<!-- a.cpp&#45;&gt;foo.h -->
<g id="edge1" class="edge">
<title>a.cpp&#45;&gt;foo.h</title>
<path fill="none" stroke="black" d="M103.94,-215.7C108.49,-207.52 114.02,-197.6 119.04,-188.58"/>
<polygon fill="black" stroke="black" points="122.23,-190.06 124.04,-179.62 116.11,-186.65 122.23,-190.06"/>
</g>
<!-- b.cpp -->
<g id="node2" class="node">
<title>b.cpp</title>
<polygon fill="lightgray" stroke="black" points="243.3,-180 187.3,-180 187.3,-144 243.3,-144 243.3,-180"/>
<text text-anchor="middle" x="215.3" y="-158.3" font-family="Times,serif" font-size="14.00">b.cpp</text>
</g>
<!-- b.h -->
<g id="node6" class="node">
<title>b.h</title>
<ellipse fill="none" stroke="black" cx="163.3" cy="-90" rx="27" ry="18"/>
<text text-anchor="middle" x="163.3" y="-86.3" font-family="Times,serif" font-size="14.00">b.h</text>
</g>
<!-- b.cpp&#45;&gt;b.h -->
<g id="edge3" class="edge">
<title>b.cpp&#45;&gt;b.h</title>
<path fill="none" stroke="black" d="M202.44,-143.7C196,-135.02 188.08,-124.37 181.07,-114.92"/>
<polygon fill="black" stroke="black" points="183.71,-112.61 174.94,-106.67 178.09,-116.79 183.71,-112.61"/>
</g>
<!-- string -->
<g id="node9" class="node">
<title>string</title>
<ellipse fill="none" stroke="black" stroke-dasharray="5,2" cx="163.3" cy="-18" rx="38.19" ry="18"/>
<text text-anchor="middle" x="163.3" y="-14.3" font-family="Times,serif" font-size="14.00">string</text>
</g>
<!-- b.cpp&#45;&gt;string -->
<g id="edge4" class="edge">
<title>b.cpp&#45;&gt;string</title>
<path fill="none" stroke="black" d="M214.32,-143.68C212.8,-125.3 208.96,-95.69 199.3,-72 195.2,-61.96 189,-51.88 182.9,-43.24"/>
<polygon fill="black" stroke="black" points="185.67,-41.1 176.91,-35.15 180.04,-45.27 185.67,-41.1"/>
</g>
<!-- c.cpp -->
<g id="node3" class="node">
<title>c.cpp</title>
<polygon fill="lightgray" stroke="black" points="315.3,-252 261.3,-252 261.3,-216 315.3,-216 315.3,-252"/>
<text text-anchor="middle" x="288.3" y="-230.3" font-family="Times,serif" font-size="14.00">c.cpp</text>
</g>
<!-- c.h -->
<g id="node7" class="node">
<title>c.h</title>
<ellipse fill="none" stroke="black" cx="288.3" cy="-162" rx="27" ry="18"/>
<text text-anchor="middle" x="288.3" y="-158.3" font-family="Times,serif" font-size="14.00">c.h</text>
</g>
<!-- c.cpp&#45;&gt;c.h -->
<g id="edge5" class="edge">
<title>c.cpp&#45;&gt;c.h</title>
<path fill="none" stroke="black" d="M288.3,-215.7C288.3,-207.98 288.3,-198.71 288.3,-190.11"/>
<polygon fill="black" stroke="black" points="291.8,-190.1 288.3,-180.1 284.8,-190.1 291.8,-190.1"/>
</g>
<!-- vector -->
<g id="node8" class="node">
<title>vector</title>
<ellipse fill="none" stroke="black" stroke-dasharray="5,2" cx="40.3" cy="-90" rx="40.09" ry="18"/>
<text text-anchor="middle" x="40.3" y="-86.3" font-family="Times,serif" font-size="14.00">vector</text>
</g>
<!-- a.h&#45;&gt;vector -->
<g id="edge6" class="edge">
<title>a.h&#45;&gt;vector</title>
<path fill="none" stroke="black" d="M47.12,-144.05C46.13,-136.35 44.93,-127.03 43.81,-118.36"/>
<polygon fill="black" stroke="black" points="47.26,-117.75 42.52,-108.28 40.32,-118.64 47.26,-117.75"/>
</g>
<!-- foo.h&#45;&gt;b.h -->
<g id="edge7" class="edge">
<title>foo.h&#45;&gt;b.h</title>
<path fill="none" stroke="black" d="M134.8,-143.7C137.6,-135.07 141.95,-124.5 146.52,-115.1"/>
<polygon fill="black" stroke="black" points="149.63,-116.7 151.1,-106.2 143.41,-113.49 149.63,-116.7"/>
</g>
<!-- foo.h&#45;&gt;string -->
<g id="edge8" class="edge">
<title>foo.h&#45;&gt;string</title>
<path fill="none" stroke="black" d="M128.56,-143.85C124.34,-125.61 119.88,-96.13 127.3,-72 130.48,-61.63 136.47,-51.48 142.65,-42.87"/>
<polygon fill="black" stroke="black" points="145.5,-44.9 148.81,-34.83 139.95,-40.64 145.5,-44.9"/>
</g>
<!-- b.h&#45;&gt;foo.h -->
<g id="edge9" class="edge">
<title>b.h&#45;&gt;foo.h</title>
<path fill="none" stroke="black" d="M161.8,-108.29C159.08,-116.65 154.91,-126.84 150.5,-136.03"/>
<polygon fill="black" stroke="black" points="147.29,-134.62 145.86,-145.12 153.52,-137.8 147.29,-134.62"/>
</g>
<!-- b.h&#45;&gt;string -->
<g id="edge10" class="edge">
<title>b.h&#45;&gt;string</title>
<path fill="none" stroke="black" d="M163.3,-71.7C163.3,-63.98 163.3,-54.71 163.3,-46.11"/>
<polygon fill="black" stroke="black" points="166.8,-46.1 163.3,-36.1 159.8,-46.1 166.8,-46.1"/>
</g>
</g>
</svg>
