<?xml version="1.0" encoding="UTF-8" standalone="no"?>
<!DOCTYPE svg PUBLIC "-//W3C//DTD SVG 1.1//EN"
 "http://www.w3.org/Graphics/SVG/1.1/DTD/svg11.dtd">
<!-- Generated by graphviz version 2.43.0 (0)
 -->
<!-- Title: header_graph Pages: 1 -->
<svg width="200pt" height="188pt"
 viewBox="0.00 0.00 199.74 188.00" xmlns="http://www.w3.org/2000/svg" xmlns:xlink="http://www.w3.org/1999/xlink">
<g id="graph0" class="graph" transform="scale(1 1) rotate(0) translate(4 184)">
<title>header_graph</title>
<polygon fill="white" stroke="transparent" points="-4,4 -4,-184 195.74,-184 195.74,4 -4,4"/>
<!-- example1.cpp -->
<g id="node1" class="node">
<title>example1.cpp</title>
<ellipse fill="none" stroke="black" cx="85.8" cy="-162" rx="75.29" ry="18"/>
<text text-anchor="middle" x="85.8" y="-158.3" font-family="Times,serif" font-size="14.00">example1.cpp</text>
</g>
<!-- foo.h -->
<g id="node2" class="node">
<title>foo.h</title>
<ellipse fill="none" stroke="black" cx="33.8" cy="-90" rx="33.6" ry="18"/>
<text text-anchor="middle" x="33.8" y="-86.3" font-family="Times,serif" font-size="14.00">foo.h</text>
</g>
<!-- example1.cpp&#45;&gt;foo.h -->
<g id="edge1" class="edge">
<title>example1.cpp&#45;&gt;foo.h</title>
<path fill="none" stroke="black" d="M73.21,-144.05C66.86,-135.5 59.04,-124.97 52.04,-115.56"/>
<polygon fill="black" stroke="black" points="54.68,-113.25 45.91,-107.31 49.06,-117.42 54.68,-113.25"/>
</g>
<!-- private.h -->
<g id="node3" class="node">
<title>private.h</title>
<ellipse fill="none" stroke="black" cx="137.8" cy="-90" rx="52.79" ry="18"/>
<text text-anchor="middle" x="137.8" y="-86.3" font-family="Times,serif" font-size="14.00">private.h</text>
</g>
<!-- example1.cpp&#45;&gt;private.h -->
<g id="edge2" class="edge">
<title>example1.cpp&#45;&gt;private.h</title>
<path fill="none" stroke="black" d="M98.38,-144.05C104.64,-135.63 112.33,-125.28 119.25,-115.97"/>
<polygon fill="black" stroke="black" points="122.17,-117.9 125.33,-107.79 116.55,-113.73 122.17,-117.9"/>
</g>
<!-- circular.h -->
<g id="node4" class="node">
<title>circular.h</title>
<ellipse fill="none" stroke="black" cx="137.8" cy="-18" rx="53.89" ry="18"/>
<text text-anchor="middle" x="137.8" y="-14.3" font-family="Times,serif" font-size="14.00">circular.h</text>
</g>
<!-- private.h&#45;&gt;circular.h -->
<g id="edge3" class="edge">
<title>private.h&#45;&gt;circular.h</title>
<path fill="none" stroke="black" d="M137.8,-71.7C137.8,-63.98 137.8,-54.71 137.8,-46.11"/>
<polygon fill="black" stroke="black" points="141.3,-46.1 137.8,-36.1 134.3,-46.1 141.3,-46.1"/>
</g>
</g>
</svg>
