<?xml version="1.0" encoding="UTF-8" standalone="no"?>
<!DOCTYPE svg PUBLIC "-//W3C//DTD SVG 1.1//EN"
 "http://www.w3.org/Graphics/SVG/1.1/DTD/svg11.dtd">
<!-- Generated by graphviz version 2.43.0 (0)
 -->
<!-- Title: include_dependency_graph Pages: 1 -->
<svg width="789pt" height="260pt"
 viewBox="0.00 0.00 789.48 260.00" xmlns="http://www.w3.org/2000/svg" xmlns:xlink="http://www.w3.org/1999/xlink">
<g id="graph0" class="graph" transform="scale(1 1) rotate(0) translate(4 256)">
<title>include_dependency_graph</title>
<polygon fill="white" stroke="transparent" points="-4,4 -4,-256 785.48,-256 785.48,4 -4,4"/>
<!-- src/example1.cpp -->
<g id="node1" class="node">
<title>src/example1.cpp</title>
<polygon fill="lightgray" stroke="black" points="454.24,-252 341.24,-252 341.24,-216 454.24,-216 454.24,-252"/>
<text text-anchor="middle" x="397.74" y="-230.3" font-family="Times,serif" font-size="14.00">src/example1.cpp</text>
</g>
<!-- /usr/include/stdc&#45;predef.h -->
<g id="node2" class="node">
<title>/usr/include/stdc&#45;predef.h</title>
<ellipse fill="none" stroke="black" stroke-dasharray="5,2" cx="100.74" cy="-162" rx="100.98" ry="18"/>
<text text-anchor="middle" x="100.74" y="-158.3" font-family="Times,serif" font-size="14.00">/usr/include/stdc&#45;predef.h</text>
</g>
<!-- src/example1.cpp&#45;&gt;/usr/include/stdc&#45;predef.h -->
<g id="edge3" class="edge">
<title>src/example1.cpp&#45;&gt;/usr/include/stdc&#45;predef.h</title>
<path fill="none" stroke="black" d="M341.18,-219.67C292.16,-208.12 221.12,-191.37 168.96,-179.08"/>
<polygon fill="black" stroke="black" points="169.66,-175.65 159.12,-176.76 168.05,-182.46 169.66,-175.65"/>
</g>
<!-- include/example1/foo.h -->
<g id="node3" class="node">
<title>include/example1/foo.h</title>
<ellipse fill="none" stroke="black" cx="314.74" cy="-162" rx="94.78" ry="18"/>
<text text-anchor="middle" x="314.74" y="-158.3" font-family="Times,serif" font-size="14.00">include/example1/foo.h</text>
</g>
<!-- src/example1.cpp&#45;&gt;include/example1/foo.h -->
<g id="edge1" class="edge">
<title>src/example1.cpp&#45;&gt;include/example1/foo.h</title>
<path fill="none" stroke="black" d="M377.22,-215.7C366.72,-206.84 353.77,-195.92 342.4,-186.33"/>
<polygon fill="black" stroke="black" points="344.35,-183.39 334.45,-179.62 339.84,-188.74 344.35,-183.39"/>
</g>
<!-- src/private.h -->
<g id="node4" class="node">
<title>src/private.h</title>
<ellipse fill="none" stroke="black" cx="481.74" cy="-162" rx="54.69" ry="18"/>
<text text-anchor="middle" x="481.74" y="-158.3" font-family="Times,serif" font-size="14.00">src/private.h</text>
</g>
<!-- src/example1.cpp&#45;&gt;src/private.h -->
<g id="edge2" class="edge">
<title>src/example1.cpp&#45;&gt;src/private.h</title>
<path fill="none" stroke="black" d="M418.51,-215.7C429.48,-206.55 443.08,-195.22 454.85,-185.41"/>
<polygon fill="black" stroke="black" points="457.21,-188 462.65,-178.91 452.73,-182.62 457.21,-188"/>
</g>
<!-- /usr/include/c++/11/iostream -->
<g id="node8" class="node">
<title>/usr/include/c++/11/iostream</title>
<ellipse fill="none" stroke="black" stroke-dasharray="5,2" cx="667.74" cy="-162" rx="113.98" ry="18"/>
<text text-anchor="middle" x="667.74" y="-158.3" font-family="Times,serif" font-size="14.00">/usr/include/c++/11/iostream</text>
</g>
<!-- src/example1.cpp&#45;&gt;/usr/include/c++/11/iostream -->
<g id="edge4" class="edge">
<title>src/example1.cpp&#45;&gt;/usr/include/c++/11/iostream</title>
<path fill="none" stroke="black" d="M454.34,-218.33C497.27,-207.2 556.39,-191.87 601.52,-180.17"/>
<polygon fill="black" stroke="black" points="602.41,-183.55 611.21,-177.65 600.66,-176.78 602.41,-183.55"/>
</g>
<!-- src/circular.h -->
<g id="node5" class="node">
<title>src/circular.h</title>
<ellipse fill="none" stroke="black" cx="391.74" cy="-90" rx="56.59" ry="18"/>
<text text-anchor="middle" x="391.74" y="-86.3" font-family="Times,serif" font-size="14.00">src/circular.h</text>
</g>
<!-- src/private.h&#45;&gt;src/circular.h -->
<g id="edge5" class="edge">
<title>src/private.h&#45;&gt;src/circular.h</title>
<path fill="none" stroke="black" d="M461.32,-145.12C449.12,-135.63 433.45,-123.44 420.07,-113.03"/>
<polygon fill="black" stroke="black" points="422.12,-110.2 412.08,-106.82 417.83,-115.72 422.12,-110.2"/>
</g>
<!-- /usr/include/c++/11/vector -->
<g id="node7" class="node">
<title>/usr/include/c++/11/vector</title>
<ellipse fill="none" stroke="black" stroke-dasharray="5,2" cx="570.74" cy="-90" rx="104.78" ry="18"/>
<text text-anchor="middle" x="570.74" y="-86.3" font-family="Times,serif" font-size="14.00">/usr/include/c++/11/vector</text>
</g>
<!-- src/private.h&#45;&gt;/usr/include/c++/11/vector -->
<g id="edge6" class="edge">
<title>src/private.h&#45;&gt;/usr/include/c++/11/vector</title>
<path fill="none" stroke="black" d="M501.94,-145.12C513.55,-135.98 528.34,-124.35 541.24,-114.2"/>
<polygon fill="black" stroke="black" points="543.69,-116.73 549.38,-107.8 539.36,-111.23 543.69,-116.73"/>
</g>
<!-- /usr/include/c++/11/string -->
<g id="node6" class="node">
<title>/usr/include/c++/11/string</title>
<ellipse fill="none" stroke="black" stroke-dasharray="5,2" cx="391.74" cy="-18" rx="102.88" ry="18"/>
<text text-anchor="middle" x="391.74" y="-14.3" font-family="Times,serif" font-size="14.00">/usr/include/c++/11/string</text>
</g>
<!-- src/circular.h&#45;&gt;/usr/include/c++/11/string -->
<g id="edge7" class="edge">
<title>src/circular.h&#45;&gt;/usr/include/c++/11/string</title>
<path fill="none" stroke="black" d="M391.74,-71.7C391.74,-63.98 391.74,-54.71 391.74,-46.11"/>
<polygon fill="black" stroke="black" points="395.24,-46.1 391.74,-36.1 388.24,-46.1 395.24,-46.1"/>
</g>
</g>
</svg>
