<?xml version="1.0" encoding="UTF-8" standalone="no"?>
<!DOCTYPE svg PUBLIC "-//W3C//DTD SVG 1.1//EN"
 "http://www.w3.org/Graphics/SVG/1.1/DTD/svg11.dtd">
<!-- Generated by graphviz version 2.43.0 (0)
 -->
<!-- Title: header_graph Pages: 1 -->
<svg width="1226pt" height="188pt"
 viewBox="0.00 0.00 1226.27 188.00" xmlns="http://www.w3.org/2000/svg" xmlns:xlink="http://www.w3.org/1999/xlink">
<g id="graph0" class="graph" transform="scale(1 1) rotate(0) translate(4 184)">
<title>header_graph</title>
<polygon fill="white" stroke="transparent" points="-4,4 -4,-184 1222.27,-184 1222.27,4 -4,4"/>
<!-- examples/example1/src/example1.cpp -->
<g id="node1" class="node">
<title>examples/example1/src/example1.cpp</title>
<ellipse fill="none" stroke="black" cx="656.53" cy="-162" rx="186.57" ry="18"/>
<text text-anchor="middle" x="656.53" y="-158.3" font-family="Times,serif" font-size="14.00">examples/example1/src/example1.cpp</text>
</g>
<!-- examples/example1/include/example1/foo.h -->
<g id="node2" class="node">
<title>examples/example1/include/example1/foo.h</title>
<ellipse fill="none" stroke="black" cx="212.53" cy="-90" rx="212.56" ry="18"/>
<text text-anchor="middle" x="212.53" y="-86.3" font-family="Times,serif" font-size="14.00">examples/example1/include/example1/foo.h</text>
</g>
<!-- examples/example1/src/example1.cpp&#45;&gt;examples/example1/include/example1/foo.h -->
<g id="edge1" class="edge">
<title>examples/example1/src/example1.cpp&#45;&gt;examples/example1/include/example1/foo.h</title>
<path fill="none" stroke="black" d="M563.72,-146.37C492.07,-135.07 392.89,-119.43 318.19,-107.66"/>
<polygon fill="black" stroke="black" points="318.71,-104.2 308.28,-106.1 317.62,-111.11 318.71,-104.2"/>
</g>
<!-- examples/example1/include/example1/bar.h -->
<g id="node3" class="node">
<title>examples/example1/include/example1/bar.h</title>
<ellipse fill="none" stroke="black" cx="656.53" cy="-90" rx="213.36" ry="18"/>
<text text-anchor="middle" x="656.53" y="-86.3" font-family="Times,serif" font-size="14.00">examples/example1/include/example1/bar.h</text>
</g>
<!-- examples/example1/src/example1.cpp&#45;&gt;examples/example1/include/example1/bar.h -->
<g id="edge2" class="edge">
<title>examples/example1/src/example1.cpp&#45;&gt;examples/example1/include/example1/bar.h</title>
<path fill="none" stroke="black" d="M656.53,-143.7C656.53,-135.98 656.53,-126.71 656.53,-118.11"/>
<polygon fill="black" stroke="black" points="660.03,-118.1 656.53,-108.1 653.03,-118.1 660.03,-118.1"/>
</g>
<!-- examples/example1/src/private.h -->
<g id="node4" class="node">
<title>examples/example1/src/private.h</title>
<ellipse fill="none" stroke="black" cx="1052.53" cy="-90" rx="164.37" ry="18"/>
<text text-anchor="middle" x="1052.53" y="-86.3" font-family="Times,serif" font-size="14.00">examples/example1/src/private.h</text>
</g>
<!-- examples/example1/src/example1.cpp&#45;&gt;examples/example1/src/private.h -->
<g id="edge3" class="edge">
<title>examples/example1/src/example1.cpp&#45;&gt;examples/example1/src/private.h</title>
<path fill="none" stroke="black" d="M741.97,-145.9C806.2,-134.54 894.1,-119.01 959.99,-107.36"/>
<polygon fill="black" stroke="black" points="960.72,-110.78 969.96,-105.6 959.5,-103.89 960.72,-110.78"/>
</g>
<!-- examples/example1/src/circular.h -->
<g id="node5" class="node">
<title>examples/example1/src/circular.h</title>
<ellipse fill="none" stroke="black" cx="1052.53" cy="-18" rx="165.97" ry="18"/>
<text text-anchor="middle" x="1052.53" y="-14.3" font-family="Times,serif" font-size="14.00">examples/example1/src/circular.h</text>
</g>
<!-- examples/example1/src/private.h&#45;&gt;examples/example1/src/circular.h -->
<g id="edge4" class="edge">
<title>examples/example1/src/private.h&#45;&gt;examples/example1/src/circular.h</title>
<path fill="none" stroke="black" d="M1052.53,-71.7C1052.53,-63.98 1052.53,-54.71 1052.53,-46.11"/>
<polygon fill="black" stroke="black" points="1056.03,-46.1 1052.53,-36.1 1049.03,-46.1 1056.03,-46.1"/>
</g>
</g>
</svg>
